<svg xmlns="http://www.w3.org/2000/svg" width="1000" height="463.5"><path d="M806.69 373.52v-10.59c3.06-2.37 6-6 8.78-11a108.72 108.72 0 0 0 12.82-50.18c0-12.54-4.46-20.07-12.26-20.07-3.07 0-6.28 1.4-9.34 3.9v-11.3a53.51 53.51 0 0 1 9.34-.83c23 0 38.61 16.86 38.61 42.23 0 14.35-5.86 28-16.45 39.86-8.92 9.48-19.79 15.75-31.5 18zm157.63-91.29-13.38 54.22a60.86 60.86 0 0 0-2.65 16c0 5.57 2.09 8.64 5.44 8.64 3.62 0 8.92-3.63 13.94-10 10.45-13.52 18-30.94 18-40.42 0-6-7.52-19-7.52-24 0-7.39 4.46-11.84 10.31-11.84 6.83 0 11.57 6.82 11.57 16.86 0 13.52-8.5 35.82-21.32 55.33-11.57 17.14-26.07 26.48-39.86 26.48-9.48 0-14.92-4.6-14.92-13.52 0-4.46.56-9.9 2.37-18.54l2.2-11.44c-16.58 30-30.38 43.49-45.71 43.49-9.62 0-14.91-5.44-14.91-16.59a47.67 47.67 0 0 1 3.62-18.53l10.17-30.66v-.56c2.51-6.83 3.63-11.85 3.63-15.47 0-1.95 0-1.95-.56-1.95-2 0-6.27 3.06-9.9 8.08-.55 1.39-1.67 2.51-2.78 4.46-2.23 2.93-4.18 4.32-5.86 4.32-.56 0-1.67-1.39-1.67-2.65 0-1.67 4.46-9.2 9.76-15.33 7.94-8.78 16.86-13.79 25.5-13.79s12.68 4.45 12.68 13c0 5-1.39 11.42-5.29 22.29l-11 33.59c-1.12 3.9-2.23 8.79-2.23 11.29s1.11 3.63 3.34 3.63c6.27 0 22.72-21.61 32.34-47.39a159.06 159.06 0 0 0 7.52-24c.56-2.51 1.12-4.46 1.68-5 1.11-2.93 2.5-4.32 5.85-4.32h17.14c2 0 3.07.56 3.07 2.51a2.19 2.19 0 0 1-.56 1.25v.56zm-157.63-8v11.29a33.34 33.34 0 0 0-8.09 10.6 100.51 100.51 0 0 0-13.51 50c0 13.24 4.88 19.93 13.51 19.93a13.29 13.29 0 0 0 8.09-3.2v10.59a56.14 56.14 0 0 1-9.76.84c-23 0-38.46-16.87-38.46-41.82a58.75 58.75 0 0 1 16-40.27c9.2-9.34 20.49-15.75 32.2-18zM647 370h15.6c3.63 0 6.42-1.12 7.53-3.07 0-.84 5.16-14.49 9.06-23.84 15.06-33.58 27.74-51.42 37.78-51.42 3.2 0 5.43 3.62 5.43 9.2 0 7.1-4.6 18.67-15.47 47.52-8.36 21.88 2.51 24.67 5.29 25.09 9.9 2.79 18.54.28 32.06-14.91 15-17.15 7.53-23.28 3.62-15.75-.83 1.39-6.41 11.29-9.61 14.63s-8.36 3.35-5.58-3.9c0 0 16.31-44.74 17.15-48.36 4.18-17.42-5.58-32.34-18.54-32.34-15.19 0-31.36 14.92-46.83 42.79l20.77-77.21c1.11-3.49 3.9-10.73 3.9-11.85a3.25 3.25 0 0 0-2.79-2.79 5 5 0 0 0-2.79 1.4 87.74 87.74 0 0 1-31.22 6.13c-7 0-8.08.83-8.08 4 0 1.95 1.11 2.51 5.3 3.9 4 1.12 5.15 1.95 5.71 4.18 0 2-.56 4.46-1.67 9.48L647 357.91V370zm0-105.51v-18.78a6.69 6.69 0 0 1 2.09 4.19 39.19 39.19 0 0 1-.56 6.41zm0-18.82v18.82l-.42 2.23c-1.11 4.18-2.23 5.57-4.46 5.57-2.51 0-3.63-2.51-4.74-8.08 0-1.95-.56-3.9-.56-5-2.23-10.17-7.52-14.35-16.86-14.35-11.43 0-19.93 8.08-19.93 18 0 5.57 4.88 14.49 14.91 26.34a21.41 21.41 0 0 0 1.67 2.51c.56 0 .56.56 1.12 1.11 12.68 15.47 19.65 27.88 19.65 38.33 0 24.39-21.32 43.21-49.62 43.21-24.66 0-35.12-4.88-35.12-15.75v-.56l.56-14.36c0-7.24 2.23-11.15 5.16-11.15 2.78 0 4.18 3.91 5.29 10 .56 3.34.56 5.57 1.12 7 2.23 10.45 9.75 16 20.21 16 14.49 0 25.22-10 25.22-24.12 0-7-4.46-15.75-13.24-26.34-1.67-1.95-2.78-3.06-3.34-4.46-14.92-16.44-19.1-26.76-19.1-38.33 0-21.32 16.87-36.93 41.54-36.93 13.1 0 25.92 5 30.94 10.31zm0 112.2-1.53 6a6.47 6.47 0 0 0-.56 3.06c0 1.81.42 2.93 2.09 3.07v-12.09zm-281.4-9.62v-9.15q2.52-3.35 5.44-8c11.29-17.42 18.81-34.15 18.81-42.23 0-6.41-2.5-9.89-7.52-9.89q-8.37 0-16.73 9.61V274a42.36 42.36 0 0 1 12.27-1.95c6.69 0 11.43 1.39 15.89 4.46l1.67-3.63c.84-1.95 1.81-2.79 4.32-2.79h17c4 0 5.16.84 5.16 2.79a43.27 43.27 0 0 0-1.12 4.74l-17.7 60.21c-.55 2-.55 5-.55 8.36 0 2.51.55 4.05 2.79 4.05s5.29-1.54 8.92-6.56a30.84 30.84 0 0 0 2.78-4.45c1.67-2.52 3.21-3.91 4.05-3.91 1.39 0 1.95 1.39 1.95 2.51 0 2.79-4.88 10.87-10.18 17.42-9.76 10.87-19.65 16.45-29.41 16.45a9.64 9.64 0 0 1-9.75-9.48c0-5 1.11-9.2 3.34-18l3.6-18.22a205 205 0 0 1-15.06 22.29zm0-74.28v14.63a86.63 86.63 0 0 0-7.69 10.4c-10.17 15.89-16.59 32.76-16.59 42.79 0 6.14 2.79 10.46 7 10.46 5 0 10.18-3.49 17.28-13.1v9.19c-12.68 16.17-24.25 24-35.12 24-6.55 0-11.57-3.21-14.77-8.92v-38.54A83.53 83.53 0 0 1 331 299c11-12.82 23-21.32 34.56-24.94zm-49.89 24.53a12.48 12.48 0 0 0 3.76-9.34 13.58 13.58 0 0 0-3.76-9.2zm0-18.54v18.54a11.84 11.84 0 0 1-8.23 3.2c-6.27 0-9.33-3.34-13.79-10.87a6.39 6.39 0 0 1-1.4-3.62c-1.67-3.91-3.34-5.58-5.57-5.58-3.07 0-8.78 5-13.8 13.1a81.8 81.8 0 0 0-11.71 41.68c0 13.65 6.41 22.16 17 22.16 6.55 0 11.84-2.23 21.88-11.57a18.87 18.87 0 0 0 3.34-3.35c2.65-2.23 4-3.62 5.16-3.62s2.23 1.39 2.23 3.06c0 2-2.23 5.86-5.3 9.35-11.29 13.65-26.2 21.88-41.25 21.88-19.65 0-32.89-14.92-32.89-36.8 0-16 6.83-31.78 19.65-44.74 12.4-12.4 29.41-19.93 44.32-19.93 9.06 0 16.31 2.79 20.35 7.11zm0 44.88a64.33 64.33 0 0 0-3.77 21.32c0 7 1.4 12.82 3.77 17.15v-38.43zm-150 25.78v-9.47c1.67-2.38 3.49-5 5.44-8.09 11.15-17.42 18.54-33.87 18.54-42.23 0-6.13-2.37-9.89-7.39-9.89-5.44 0-10.87 3.2-16.59 9.61v-14.31a39.18 39.18 0 0 1 12.41-2c6.69 0 11.15 1.12 15.47 4.19l1.67-3.62c1.11-2 2-2.52 4.74-2.52h16.58c4.46 0 5.3.56 5.3 2.52 0 .55-.56 2.5-.84 5l-17.7 60.21c-.55 1.95-.55 5-.55 8.08 0 2.37.55 4.33 2.5 4.33 2.23 0 5.58-2 9.06-6.56a28.92 28.92 0 0 1 2.79-4.46c1.39-2.78 3.35-3.9 4.18-3.9 1.12 0 1.67 1.12 1.67 2.51 0 2.51-5 10.45-10 17.42-9.62 10.59-19.93 16-29.55 16a9.28 9.28 0 0 1-9.47-9.34c0-4.74.83-9.2 3.34-18l3.63-18.12a232.49 232.49 0 0 1-15.23 22.68zM113.59 239a6.09 6.09 0 0 1 1.67 4.45c0 2-.84 5.3-1.12 8.37l-.55 2.23V239zm52.12 37.21v14.35a73.32 73.32 0 0 0-7.8 10.32c-10.32 16.16-16.31 33-16.31 42.78 0 6.41 2.37 10.74 6.83 10.74 5 0 10-3.63 17.28-13.24v9.47c-12.68 16-24.25 23.7-35 23.7-8.5 0-14.5-5.16-17.14-13.94v-26.31a76.43 76.43 0 0 1 17.7-33.17c10.73-12.82 22.73-21.19 34.44-24.67zM98 341.46l-2.93 16v.56c-.55 3.9-2.23 7-5.57 8.08-8.92 5.3-22.72 8.23-36.38 8.23C19.65 374.36 0 355 0 322.09c0-27.87 12.12-49.76 37.35-68C53.66 241.81 75 235.4 96.44 235.4c8.92 0 14.5 1 17.15 3.63v15.05l-2.79 11.29v.56c-.84 5.85-3.35 8.35-5.3 8.35-3.62 0-5.57-3.34-5.57-8.91v-4.19c0-16.3-1.4-17.7-8.22-17.7-10.32 0-26.07 8.37-38.61 19.94-15.75 16.44-25.37 37.49-25.37 58.67 0 26.06 13.24 42.93 34 42.93 10 0 14.91-2.51 23-17.43a48.73 48.73 0 0 1 2.8-5.59c3.06-6.41 5.57-10 8.08-10 2 0 2.92 1.95 2.92 5 0 2.51 0 3.07-.55 4.46zm15.61-7.38a61.27 61.27 0 0 0-1.67 14.07 41.29 41.29 0 0 0 1.67 12.27zM534.77 281.39l-14.07 52c-2.23 7.53-3.35 13.94-3.35 15.89 0 2.37.56 3.76 1.67 3.76 2.23 0 4.74-1.95 7.81-6.83.56-1.39 1.67-2.51 2.23-3.62 2.51-3.9 4.46-5.3 5.29-5.3s1.54.56 1.54 2.51c0 3.07-3.77 10-9.9 17.42-8.64 10-16 14.5-23.55 14.5-7.25 0-10.18-4.46-10.18-13.1a94.5 94.5 0 0 1 2.93-21.33l3.63-11.57c-16.73 29.55-33.87 46-47.81 46-8.36 0-13.24-6.41-13.24-17 0-3.62 1.11-8.5 3.34-16.86l13.8-41.39a16.27 16.27 0 0 0 .56-5c0-1.95-.56-2.51-1.12-2.51-2.22 0-4.74 1.95-8.64 6.41a32.88 32.88 0 0 0-3.06 4.19c-2.09 3.06-4.33 4.45-5.44 4.45s-1.95-.83-1.95-2.5c0-2 4.18-9.48 9.9-15.62 8.08-8.78 16.72-13 25.78-13 7.8 0 12.26 4.18 12.26 13 0 4.19-1.67 10.6-4.73 21.61l-9.76 28.71c-2.23 5.57-3.21 9.48-3.21 11.15 0 2.51 1 3.76 3.21 3.76 5.3 0 22.44-19.93 31.5-43.07 3.34-6 6.13-14.07 8.08-23.55a32.38 32.38 0 0 0 1.12-4c1.11-3.35 2.65-4.46 5.71-4.46h18.4c1.25 0 1.81.56 1.81 1.11a12.59 12.59 0 0 1-.56 4.32zM499.37 0l-20.35 63.41-65.08-3.06 54.77 38.74-22.72 59.66 54.5-39.03 50.73 39.58-21.05-62.85 54.22-34.99h-67.88L499.37 0zM349.4 42.65l-14.77 45.16-49.06-.84 39.17 27.45-15.89 45.16 39.16-28.01 39.03 28.85-15.19-44.88 40.13-27.46-48.22.28-14.36-45.71zM647.94 42.09l13.8 45.16 50.46-.84-40.15 26.9 16.31 45.72-38.88-28.58-39.86 29.41 16.16-44.6-41.39-27.73 48.78.83 14.77-46.27zM234.7 70.66l-14.49 41.81L177 110.8l36.24 26.07-14.92 39.3 36.66-25.51 33.73 26.07-13.24-41.82 35.68-23.27-45.16-.56-11.29-40.42zM763.48 70.11l12.69 40.41 45.15-.55-35.68 24.39L800 175.61l-34.99-25.51-35.95 26.07 14.07-39.86-36.79-25.23 43.76.56 13.38-41.53zM138.54 109.41l-8.92 28.85-32.06-.56 25.09 16.86-10.18 29.69 24.39-18.12 25.79 18.68-10.32-28.02 26.07-18.25-30.53.83-9.33-29.96zM860.35 108.85l9.48 27.74 31.63.55-24.39 17.15 9.06 29.4-24.39-17.28-25.78 17.56 9.2-27.73-25.23-18.26h30.24l10.18-29.13z" style="fill:#7d3520;fill-rule:evenodd"/><path d="M98 406.51h6.18l17.36 43.24h-6.41l-4.18-10.9H90.82l-4.18 10.9h-6.18zm2.89 5.82-8.19 21.44h16.36zM153.48 462.76H148V445.6h-.11c-1.71 3-5.6 4.89-10 4.89-9.06 0-12.89-8.48-12.89-17.09s4.24-16 12.95-16a11.73 11.73 0 0 1 10.18 5.27h.12v-4.52h5.29zm-14.36-17c6.24 0 8.83-6.51 8.83-11.78 0-5.88-2.88-11.89-8.88-11.89s-8.36 5.95-8.24 11.71c-.12 4.99 2.35 11.99 8.29 11.99zM189.44 449.75h-5.36v-5H184c-1.65 3.59-5.65 5.76-9.83 5.76-7.77 0-11.24-5.08-11.24-13.56v-18.79h5.53v16.35c0 7.37 1.53 11 6.36 11.28 6.29 0 9.12-5.33 9.12-13v-14.63h5.53zM205.44 411.1h-6.23v-6.57h6.23zm-5.88 7.06h5.53v31.59h-5.53zM254.58 448.45a22.1 22.1 0 0 1-9.47 2c-10.66 0-15.54-6.81-15.54-17.09 0-9.36 5.59-16 14.07-16 10 0 13.24 7.68 13.24 17.84h-21.42c0 6.26 4.65 10.54 9.88 10.54a17.2 17.2 0 0 0 9.24-3.16zM251 430.92c0-4.83-2.7-8.8-7.47-8.8-5.42 0-7.65 4.71-8.06 8.8zm-6.41-26.08H251l-7.71 8.92h-3.94zM284.24 422.87h-7.06v-4.71h7.06v-2.91c0-7.68 1.88-12.7 10.06-12.7a21.15 21.15 0 0 1 3.71.37l-.24 4.71a8.18 8.18 0 0 0-2.64-.38c-4.77 0-5.36 3.23-5.36 7.5v3.41h7.94v4.71h-7.94v26.88h-5.53zM305 420.39a18.47 18.47 0 0 1 9.89-3c8.59 0 12.06 4.47 12.06 13.08v13.06a51.59 51.59 0 0 0 .24 6.2H322v-4.09h-.12a11 11 0 0 1-9.3 4.83c-6.47 0-11-3-11-9.85 0-7.93 8.24-10.4 13.95-10.4 2.17 0 3.7 0 5.88.12 0-5.45-1.88-8.24-7.41-8.24a13.68 13.68 0 0 0-8.71 3.22zm16.42 14.31c-1.18 0-2.35-.13-3.53-.13-3 0-10.41.5-10.41 6.07 0 3.35 3.05 5.15 5.59 5.15 5.47 0 8.35-3.6 8.35-8.3zm-4.83-29.86H323l-7.71 8.92h-3.94zM355.32 423.49a15.11 15.11 0 0 0-6-1.37c-6.18 0-9.65 5.83-9.65 11.83 0 5.64 2.89 11.84 10 11.84a11.2 11.2 0 0 0 5.94-1.8l.41 5.2a16 16 0 0 1-6.94 1.3c-9.06 0-15.3-7.49-15.3-16.54 0-9.6 6.12-16.54 15.3-16.54a19.56 19.56 0 0 1 6.71 1.25zM369 411.1h-6.24v-6.57H369zm-5.89 7.06h5.53v31.59h-5.53zM379.45 403.29H385v46.46h-5.53zM415.05 422.87H408v-4.71h7.06v-2.91c0-7.68 1.88-12.7 10.07-12.7a21 21 0 0 1 3.7.37l-.23 4.71a8.29 8.29 0 0 0-2.65-.38c-4.77 0-5.35 3.23-5.35 7.5v3.41h7.94v4.71h-7.94v26.88h-5.54zM435.77 420.39a18.43 18.43 0 0 1 9.88-3c8.59 0 12.07 4.47 12.07 13.08v13.06a55.1 55.1 0 0 0 .23 6.2h-5.17v-4.09h-.12a11 11 0 0 1-9.3 4.83c-6.47 0-11-3-11-9.85 0-7.93 8.24-10.4 13.95-10.4 2.18 0 3.71 0 5.89.12 0-5.45-1.88-8.24-7.42-8.24a13.7 13.7 0 0 0-8.71 3.22zm16.42 14.31c-1.18 0-2.36-.13-3.53-.13-3 0-10.42.5-10.42 6.07 0 3.35 3.06 5.15 5.59 5.15 5.47 0 8.36-3.6 8.36-8.3zM464.9 444.67l17.3-21.8h-16.48v-4.71h22.89v5.08L471.31 445h17.95v4.71H464.9zM519.5 448.45a22 22 0 0 1-9.47 2c-10.65 0-15.53-6.81-15.53-17.09 0-9.36 5.59-16 14.06-16 10 0 13.24 7.68 13.24 17.84h-21.42c0 6.26 4.65 10.54 9.89 10.54a17.2 17.2 0 0 0 9.23-3.16zm-3.58-17.53c0-4.83-2.71-8.8-7.48-8.8-5.41 0-7.65 4.71-8.06 8.8zM529.21 418.16h5.18v4.89h.12c1.47-3.28 4.65-5.64 7.83-5.64a14.59 14.59 0 0 1 3.64.44v5.2a7.83 7.83 0 0 0-3.06-.56c-4.94 0-8.17 5-8.17 12.89v14.37h-5.54zM569.88 420.39a18.47 18.47 0 0 1 9.89-3c8.58 0 12.06 4.47 12.06 13.08v13.06a55.1 55.1 0 0 0 .23 6.2h-5.17v-4.09h-.12a11 11 0 0 1-9.3 4.83c-6.47 0-11-3-11-9.85 0-7.93 8.24-10.4 13.95-10.4 2.18 0 3.71 0 5.89.12 0-5.45-1.89-8.24-7.42-8.24a13.7 13.7 0 0 0-8.71 3.22zm16.42 14.31c-1.18 0-2.36-.13-3.53-.13-3 0-10.42.5-10.42 6.07 0 3.35 3.06 5.15 5.59 5.15 5.48 0 8.36-3.6 8.36-8.3zM601.89 403.29h5.53v46.46h-5.53zM644.08 448.38c0 9.61-4.7 15.12-15.47 15.12-3.18 0-5.94-.43-10.77-2.17l.59-5.39c4.24 2.05 6.77 2.85 10.83 2.85 5.82 0 9.29-4.15 9.29-10.84v-3.09h-.11a12.3 12.3 0 0 1-10.07 4.89c-8.59 0-12.83-7.37-12.83-15.55s4.36-16.79 13.42-16.79c5.3 0 8.24 2 9.89 5.46h.15v-4.71h5.12zm-5.53-14.05c0-6.57-2.88-12.21-8.77-12.21-5.59 0-8.35 6.38-8.35 11.77 0 5.95 3.17 11.15 8.35 11.15s8.77-4.83 8.77-10.71zM680 449.75h-5.35v-5h-.12c-1.65 3.59-5.66 5.76-9.83 5.76-7.77 0-11.24-5.08-11.24-13.56v-18.79H659v16.35c0 7.37 1.53 11 6.36 11.28 6.29 0 9.12-5.33 9.12-13v-14.63H680zM712.46 448.45a22.1 22.1 0 0 1-9.47 2c-10.65 0-15.54-6.81-15.54-17.09 0-9.36 5.59-16 14.06-16 10 0 13.25 7.68 13.25 17.84h-21.43c0 6.26 4.66 10.54 9.89 10.54a17.2 17.2 0 0 0 9.24-3.16zm-3.59-17.53c0-4.83-2.71-8.8-7.47-8.8-5.42 0-7.65 4.71-8.07 8.8zm-6.41-26.08h6.41l-7.71 8.92h-3.94zM722.11 418.16h5.18v4.58h.12c2.12-3.65 5.12-5.33 9.53-5.33a8.88 8.88 0 0 1 8.54 6.14 10.65 10.65 0 0 1 9.29-6.14c7.65 0 10.42 5.21 10.42 12.08v20.26h-5.53v-18.83c0-3.91-.89-8.8-5.36-8.8-5.65 0-7.88 5.83-7.88 11.71v15.92h-5.53v-18.83c0-3.91-.89-8.8-5.36-8.8-5.65 0-7.88 5.83-7.88 11.71v15.92h-5.54zM794.43 422.87h-7.06v-4.71h7.06v-2.91c0-7.68 1.88-12.7 10.07-12.7a21.25 21.25 0 0 1 3.71.37l-.24 4.71a8.29 8.29 0 0 0-2.65-.38c-4.77 0-5.35 3.23-5.35 7.5v3.41h7.94v4.71H800v26.88h-5.54zM836.75 448.45a22.2 22.2 0 0 1-9.48 2c-10.65 0-15.53-6.81-15.53-17.09 0-9.36 5.59-16 14.06-16 10 0 13.24 7.68 13.24 17.84h-21.42c0 6.26 4.65 10.54 9.88 10.54a17.27 17.27 0 0 0 9.25-3.16zm-3.6-17.53c0-4.83-2.7-8.8-7.47-8.8-5.41 0-7.65 4.71-8.06 8.8zM847.16 403.29h5.53v46.46h-5.53zM869.4 411.1h-6.23v-6.57h6.23zm-5.88 7.06h5.53v31.59h-5.53zM877 444.67l17.3-21.8h-16.48v-4.71h22.89v5.08L883.41 445h18v4.71H877zM908.77 442.81h6.59v6.94h-6.59z" style="fill:#7d3520"/></svg>